<svg xmlns="http://www.w3.org/2000/svg" width="357.7" height="424.353" viewBox="0 0 357.7 424.353">
  <g id="Group_193" data-name="Group 193" transform="translate(-870.277 -233.148)">
    <path id="Path_4716" data-name="Path 4716" d="M271.4,170.683c21.031.275,41.408,5.883,59.072,17.3,18.457,11.93,36.221,27.243,42.45,48.319,6.158,20.835-2.452,42.337-9.594,62.856-6.989,20.079-14.651,40.39-31.052,53.919A94.956,94.956,0,0,1,271.4,375c-21.976-.211-42.932-9.275-60.033-23.079-16.488-13.309-27.349-31.964-33.337-52.29a107.154,107.154,0,0,1,.063-60.655c5.966-20.365,15.975-40.017,33.1-52.55,17.159-12.558,38.945-16.017,60.207-15.738" transform="translate(852.951 62.48)" fill="#af81dd"/>
    <g id="Group_154" data-name="Group 154" transform="translate(-213.54 55.175)">
      <g id="freepik--Character--inject-31" transform="translate(1269.917 224.981)">
        <path id="Path_4621" data-name="Path 4621" d="M306.264,164.556l-.427,1.439-.39,1.219c-.268.817-.561,1.573-.853,2.353-.585,1.524-1.219,3.011-1.914,4.486a81.058,81.058,0,0,1-4.572,8.534c-.841,1.378-1.731,2.706-2.633,4.035s-1.865,2.609-2.877,3.865a83.736,83.736,0,0,1-6.376,7.254l-.476.488a7.411,7.411,0,0,1-2.292,1.6,18.1,18.1,0,0,1-8.071,1.5,20.42,20.42,0,0,1-7-1.646,25,25,0,0,1-5.23-3,37.791,37.791,0,0,1-4.108-3.475,51.828,51.828,0,0,1-6.291-7.632c-.9-1.317-1.731-2.67-2.524-4.035s-1.475-2.731-2.219-4.3a4.876,4.876,0,0,1,7.729-5.657l.317.293,2.975,2.731c1.012.927,2.048,1.816,3.084,2.67a54.5,54.5,0,0,0,6.218,4.56,17.372,17.372,0,0,0,5.584,2.438,2.853,2.853,0,0,0,1.548,0,.817.817,0,0,0,.39-.366l-2.8,2.121c1.548-2.1,3.048-4.218,4.425-6.413s2.694-4.462,3.926-6.742,2.365-4.633,3.414-6.986c.536-1.219,1.012-2.365,1.5-3.535l1.219-3.194.341-.878a9.753,9.753,0,0,1,18.409,6.254Z" transform="translate(-240.92 -93.03)" fill="#263238"/>
        <path id="Path_4622" data-name="Path 4622" d="M252.552,175.364l-8.241-2.865L242.58,161.21s13.813,3.657,13.752,10.314Z" transform="translate(-242.008 -91.099)" fill="#ce7a63"/>
        <path id="Path_4623" data-name="Path 4623" d="M292.475,129.155c-5.376-1.89-12.8-8.327-9.887-16.653,2.219-6.315,10.436-6.876,13.666-4.986s3.365-1.987,7.5-3.474,7.046,2.255,9.143,4.218,4.547.475,7.656.61,5.328,4.206,3.6,7.181c-3.048,5.218,1.987,8.534-1.829,12.606-5.62,5.913-1.219,11.716-9.143,17.6C308.36,149.868,294.682,143.248,292.475,129.155Z" transform="translate(-233.385 -103.7)" fill="#263238"/>
        <path id="Path_4624" data-name="Path 4624" d="M290.933,131.719a1.5,1.5,0,0,1-.658.207,1.536,1.536,0,0,1-1.658-1.39,15.214,15.214,0,0,1,5.023-13.057,1.537,1.537,0,0,1,1.9,2.414h0a12.081,12.081,0,0,0-3.865,10.375,1.536,1.536,0,0,1-.744,1.451Z" transform="translate(-231.941 -100.753)" fill="#263238"/>
        <path id="Path_4625" data-name="Path 4625" d="M284.2,152.876s-10.814,27.674-.549,79.243h49.021c.341-7.522-4.389-44.23,2.865-79.682a128.607,128.607,0,0,0-16.409-2.073,179.872,179.872,0,0,0-20.835,0A91.177,91.177,0,0,0,284.2,152.876Z" transform="translate(-233.977 -93.541)" fill="#fff"/>
        <path id="Path_4626" data-name="Path 4626" d="M313.676,131c-1.317,6.705-2.621,18.994,2.06,23.468,0,0-7.851,6.364-16.1,12.8a13.886,13.886,0,0,1-4.73-12.8c7.473-1.78,7.315-7.315,5.986-12.545Z" transform="translate(-230.582 -97.718)" fill="#f8bfaf"/>
        <path id="Path_4627" data-name="Path 4627" d="M307.361,134.69l-7.571,6.461a20.968,20.968,0,0,1,.646,3.657c2.438,2.316,6.778-3.548,7.083-6.535A10.133,10.133,0,0,0,307.361,134.69Z" transform="translate(-229.472 -96.91)" opacity="0.2"/>
        <path id="Path_4628" data-name="Path 4628" d="M314.79,123.918c.341,9.095,1,14.4-3.1,19.506-6.181,7.656-17.738,4.62-20.786-4.194-2.743-7.924-2.841-21.457,5.657-25.919a12.4,12.4,0,0,1,18.226,10.606Z" transform="translate(-231.781 -101.914)" fill="#f8bfaf"/>
        <path id="Path_4629" data-name="Path 4629" d="M314.682,133.031c-2.5,4.876-5.376-10.545-4.645-13.118-8.839,2.438-22.4,1.634-21.347-4.535,1.219-6.961,9.314-7.229,18.287-6.376C321.789,110.428,317.388,127.74,314.682,133.031Z" transform="translate(-231.917 -102.614)" fill="#263238"/>
        <path id="Path_4630" data-name="Path 4630" d="M306.7,131.378a1.451,1.451,0,0,1-.671-.122,1.536,1.536,0,0,1-.792-2.024,15.215,15.215,0,0,1,10.655-9.058,1.524,1.524,0,0,1,1.768,1.219,1.548,1.548,0,0,1-1.219,1.768h0a12.118,12.118,0,0,0-8.363,7.315A1.5,1.5,0,0,1,306.7,131.378Z" transform="translate(-228.308 -100.096)" fill="#263238"/>
        <path id="Path_4631" data-name="Path 4631" d="M315.314,127.879a9.18,9.18,0,0,1-3.56,5.449c-2.377,1.658-4.255-.378-4.194-3.243.061-2.572,1.378-6.522,4.035-7.034S315.911,125.185,315.314,127.879Z" transform="translate(-227.77 -99.474)" fill="#f8bfaf"/>
        <path id="Path_4632" data-name="Path 4632" d="M279.323,406.7c-1.134.28-2.268.39-2.755,0a.817.817,0,0,1-.2-.927,1.049,1.049,0,0,1,.549-.646c1.378-.768,4.877.232,5.035.28a.207.207,0,0,1,0,.4A16.143,16.143,0,0,1,279.323,406.7Zm-1.8-1.378a1.62,1.62,0,0,0-.39.146.658.658,0,0,0-.341.39c-.1.3,0,.414.061.476.549.475,2.792-.061,4.389-.707a9.754,9.754,0,0,0-3.718-.3Z" transform="translate(-234.618 -37.713)" fill="#263238"/>
        <path id="Path_4633" data-name="Path 4633" d="M281.633,406.253h-.085c-1.219-.207-3.755-1.609-3.828-2.658,0-.244.085-.585.646-.78a1.609,1.609,0,0,1,1.219.073c1.341.646,2.133,2.987,2.17,3.084a.207.207,0,0,1,0,.219A.232.232,0,0,1,281.633,406.253Zm-3-3.072h-.122c-.378.122-.366.28-.354.329,0,.634,1.829,1.78,3.072,2.17a4.974,4.974,0,0,0-1.8-2.438A1.22,1.22,0,0,0,278.634,403.181Z" transform="translate(-234.308 -38.177)" fill="#263238"/>
        <path id="Path_4634" data-name="Path 4634" d="M293.51,411.78l-9.18,1.353.293-21.042,9.18-1.341Z" transform="translate(-232.86 -40.801)" fill="#f8bfaf"/>
        <path id="Path_4635" data-name="Path 4635" d="M286.906,404.65h12.033a.719.719,0,0,1,.731.622l1.219,8.107A1.451,1.451,0,0,1,299.451,415c-3.6-.061-8.766-.268-13.288-.268-5.279,0-10.021.28-16.214.28-3.743,0-4.438-3.548-2.889-4.121,6.925-2.6,10.631-3.036,17.641-5.535A7.024,7.024,0,0,1,286.906,404.65Z" transform="translate(-236.813 -37.756)" fill="#263238"/>
        <path id="Path_4636" data-name="Path 4636" d="M284.6,392.1l-.159,10.838,9.192-1.353.158-10.838Z" transform="translate(-232.836 -40.801)" opacity="0.2"/>
        <path id="Path_4637" data-name="Path 4637" d="M289.916,406.53c-.061-3.889,1.158-10.143-8.534-6.315-5.779,2.268,2.06,8.936,2.06,8.936Z" transform="translate(-233.971 -38.989)" fill="#263238"/>
        <path id="Path_4638" data-name="Path 4638" d="M283.533,217.349s-4.876,73.842-3.5,100.1c1.341,24.882,2.1,95.469,2.267,113.988a3.974,3.974,0,0,0,4.511,3.889l6.486-.878a3.987,3.987,0,0,0,3.414-3.426c4.194-32.685,9.18-83.108,10.265-110.1,1.219-30.807,8.8-103.625,8.8-103.625Z" transform="translate(-233.855 -78.808)" fill="#ffd91a"/>
        <path id="Path_4639" data-name="Path 4639" d="M283.533,217.349s-4.876,73.842-3.5,100.1c1.341,24.882,2.1,95.469,2.267,113.988a3.974,3.974,0,0,0,4.511,3.889l6.486-.878a3.987,3.987,0,0,0,3.414-3.426c4.194-32.685,9.18-83.108,10.265-110.1,1.219-30.807,8.8-103.625,8.8-103.625Z" transform="translate(-233.855 -78.808)" fill="#fff" opacity="0.2"/>
        <path id="Path_4640" data-name="Path 4640" d="M333.616,405.711c-1.061.475-2.158.792-2.719.463a.792.792,0,0,1-.354-.866,1.024,1.024,0,0,1,.427-.744c1.219-1,4.876-.634,5-.622a.22.22,0,0,1,.2.159.232.232,0,0,1-.085.232A15.857,15.857,0,0,1,333.616,405.711Zm-2.024-1.036a1.951,1.951,0,0,0-.354.219.622.622,0,0,0-.268.451c0,.3.073.414.146.451.622.378,2.731-.561,4.194-1.463A9.753,9.753,0,0,0,331.593,404.675Z" transform="translate(-222.738 -37.927)" fill="#263238"/>
        <path id="Path_4641" data-name="Path 4641" d="M335.764,404.814h0c-1.219,0-3.974-.914-4.23-1.938-.061-.232,0-.585.5-.878a1.548,1.548,0,0,1,1.219-.146c1.439.4,2.646,2.548,2.694,2.646a.232.232,0,0,1,0,.219.268.268,0,0,1-.183.1Zm-3.5-2.438h-.11c-.341.2-.3.341-.293.39.159.61,2.121,1.426,3.414,1.6a4.987,4.987,0,0,0-2.207-2.1,1.134,1.134,0,0,0-.756.061Z" transform="translate(-222.521 -38.383)" fill="#263238"/>
        <path id="Path_4642" data-name="Path 4642" d="M349.248,408.367l-8.656,2.938-5.742-20.347,8.644-2.938Z" transform="translate(-221.79 -41.4)" fill="#f8bfaf"/>
        <path id="Path_4643" data-name="Path 4643" d="M301.8,239c-2.524,10.107-1.853,52.105.756,75.781.622-13.861,2.377-35.233,4.157-54.861Z" transform="translate(-229.378 -74.053)" opacity="0.2"/>
        <path id="Path_4644" data-name="Path 4644" d="M339.349,403.456l11.85-2.133a.768.768,0,0,1,.866.476l3.109,7.68a1.341,1.341,0,0,1-1.024,1.829c-3.548.585-8.692,1.292-13.142,2.1-5.193.939-5.23,1.219-11.326,2.341-3.657.671-5.23-2.658-3.852-3.5,6.193-3.755,5.181-4.011,11.472-7.693a6.666,6.666,0,0,1,2.048-1.1Z" transform="translate(-223.875 -38.488)" fill="#263238"/>
        <path id="Path_4645" data-name="Path 4645" d="M334.85,390.968l2.962,10.484,8.656-2.938-2.962-10.484Z" transform="translate(-221.79 -41.398)" opacity="0.2"/>
        <path id="Path_4646" data-name="Path 4646" d="M297.13,217.349s6.315,73.854,11.179,100.1c4.681,25.26,25.858,97.213,32.1,113.561a3.962,3.962,0,0,0,4.95,2.353l6.254-2.036a3.974,3.974,0,0,0,2.67-4.523c-6.217-32.1-16.117-79.011-18.579-105.881-2.816-30.807-6.949-103.625-6.949-103.625Z" transform="translate(-230.055 -78.808)" fill="#ffd91a"/>
        <path id="Path_4647" data-name="Path 4647" d="M297.13,217.349s6.315,73.854,11.179,100.1c4.681,25.26,25.858,97.213,32.1,113.561a3.962,3.962,0,0,0,4.95,2.353l6.254-2.036a3.974,3.974,0,0,0,2.67-4.523c-6.217-32.1-16.117-79.011-18.579-105.881-2.816-30.807-6.949-103.625-6.949-103.625Z" transform="translate(-230.055 -78.808)" fill="#fff" opacity="0.2"/>
        <path id="Path_4648" data-name="Path 4648" d="M299.485,125.147c.073.744-.256,1.378-.744,1.426s-.927-.512-1-1.219.256-1.365.744-1.414S299.412,124.416,299.485,125.147Z" transform="translate(-229.923 -99.266)" fill="#263238"/>
        <path id="Path_4649" data-name="Path 4649" d="M292.665,125.832c.073.731-.256,1.365-.744,1.414s-.927-.512-1-1.219.256-1.378.744-1.426S292.592,125.088,292.665,125.832Z" transform="translate(-231.418 -99.121)" fill="#263238"/>
        <path id="Path_4650" data-name="Path 4650" d="M295.072,125.69a26.384,26.384,0,0,1-2.9,6.644,4.267,4.267,0,0,0,3.584.3Z" transform="translate(-231.142 -98.882)" fill="#e65741"/>
        <path id="Path_4651" data-name="Path 4651" d="M297.042,133.484a.22.22,0,0,1-.037-.439,5.827,5.827,0,0,0,4.523-2.743.219.219,0,0,1,.293-.1.232.232,0,0,1,.1.293A6.218,6.218,0,0,1,297.042,133.484Z" transform="translate(-230.125 -97.898)" fill="#263238"/>
        <path id="Path_4652" data-name="Path 4652" d="M301.681,122.931a.463.463,0,0,1-.366-.134,3.45,3.45,0,0,0-2.914-1.219.439.439,0,0,1-.5-.354.427.427,0,0,1,.354-.5,4.279,4.279,0,0,1,3.657,1.426.427.427,0,0,1,0,.622.488.488,0,0,1-.232.158Z" transform="translate(-229.888 -99.975)" fill="#263238"/>
        <path id="Path_4653" data-name="Path 4653" d="M289.131,124.055a.5.5,0,0,1-.2,0,.439.439,0,0,1-.219-.573,4.316,4.316,0,0,1,3.023-2.548.439.439,0,1,1,.146.853h0a3.45,3.45,0,0,0-2.377,2.048A.427.427,0,0,1,289.131,124.055Z" transform="translate(-231.907 -99.929)" fill="#263238"/>
        <path id="Path_4654" data-name="Path 4654" d="M314.489,149c4.779,0,16.3.256,17.421,4.523s-.11,11.179-1.634,15.239c2.243,6.193,1.524,15.337-.61,18.189,2.341,6.9.817,11.984-.61,14.422,1.122,2.743,2.134,10.57.415,14.422,1.414,5.486,3.036,14.629.5,16.47-3.45,2.438-12.63,3.657-19.116,2.121s-3.938-14.629-3.438-17.677c-2.841-3.755.207-15.032.207-15.032-1.426-3.145.707-14.934.707-14.934-1.719-2.841.512-18.287.512-18.287C306.991,165.361,306.186,149,314.489,149Z" transform="translate(-228.066 -93.774)" fill="#263238"/>
        <path id="Path_4655" data-name="Path 4655" d="M285.611,151.841c3.755-1.658,16.336-4.669,13.9-1.353-3.535,4.816-1.365,9.887-3.462,15.849,1.853,5.693,1.219,15-.5,18.287a21.944,21.944,0,0,1-.439,14.605c.914,2.438,1.755,10.082.329,14.325,1.219,5.169,2.146,15.593,0,17.945a10.8,10.8,0,0,1-12.52,2.548c-2.987-1.219-4.316-11.192-2.841-14.629-2.9-6.327-.536-15.7-.536-15.7-2.8-4.876-.634-15.1-.634-15.1-2.78-9.07.634-19.1.634-19.1C278.04,166.788,279.625,154.487,285.611,151.841Z" transform="translate(-234.287 -93.775)" fill="#263238"/>
        <path id="Path_4656" data-name="Path 4656" d="M291.292,153.4a4.011,4.011,0,0,1-1.621-3.194,3.158,3.158,0,0,1,3.109-3.231,10.29,10.29,0,0,1,4.072,1.219c1.914.939,2.621,1.8,2.706,3.218s-3.4,6.388-5.315,5.206S292.364,154.624,291.292,153.4Z" transform="translate(-231.69 -94.217)" fill="#263238"/>
        <path id="Path_4657" data-name="Path 4657" d="M321.417,167.134c.951-4.108,3.365-3.743,5.766-2.06l-.171.475c2.243,6.193,1.524,15.337-.61,18.189.134.39.256.78.366,1.219C323.782,182.032,319.637,174.888,321.417,167.134Z" transform="translate(-224.827 -90.513)" opacity="0.2"/>
        <path id="Path_4658" data-name="Path 4658" d="M327.239,174.78l-8.107,3.706-.792,26.187-22.03,14.191,24.663,8.851,6.693,25.321,8.119-3.694,4.535-41.3Z" transform="translate(-230.235 -88.125)" fill="#ffd91a"/>
        <path id="Path_4659" data-name="Path 4659" d="M327.239,174.78l-8.107,3.706-.792,26.187-22.03,14.191,24.663,8.851,6.693,25.321,8.119-3.694,4.535-41.3Z" transform="translate(-230.235 -88.125)" opacity="0.3"/>
        <path id="Path_4660" data-name="Path 4660" d="M369.462,221.065l-8.119,3.706-26.162-1.463,10.948-7.388Z" transform="translate(-221.717 -79.111)" fill="#ffd91a"/>
        <path id="Path_4661" data-name="Path 4661" d="M369.462,221.065l-8.119,3.706-26.162-1.463,10.948-7.388Z" transform="translate(-221.717 -79.111)" opacity="0.3"/>
        <path id="Path_4662" data-name="Path 4662" d="M325.78,174.78l20.311,16.556L371.241,184l-9.473,24.431,14.751,21.652-26.162-1.463-16.031,20.725-6.705-25.333-24.651-8.851,22.017-14.191Z" transform="translate(-228.775 -88.125)" fill="#ffd91a"/>
        <path id="Path_4663" data-name="Path 4663" d="M332.183,217.671,332,225.948l9.753-.549s1.317-5.181-4.291-8.79Z" transform="translate(-222.414 -78.959)" fill="#f8bfaf"/>
        <path id="Path_4664" data-name="Path 4664" d="M335.133,232.659l6.754-3.889-.122-4.95-9.765.549Z" transform="translate(-222.414 -77.379)" fill="#f8bfaf"/>
        <path id="Path_4665" data-name="Path 4665" d="M330.457,152.968c.792.731,1.39,1.292,2.048,1.938s1.219,1.219,1.9,1.9c1.219,1.28,2.438,2.6,3.657,3.926a105.55,105.55,0,0,1,6.717,8.534,71.736,71.736,0,0,1,5.864,9.753,36.572,36.572,0,0,1,3.852,12.618,16.719,16.719,0,0,1,.11,1.963v1.731L354.4,198.1c-.219,1.817-.439,3.657-.744,5.376a104.021,104.021,0,0,1-2.219,10.326,120.78,120.78,0,0,1-6.949,19.506,4.876,4.876,0,0,1-9.314-2.438v-.2c.524-6.437,1.219-13,1.573-19.36.244-3.194.341-6.352.415-9.436v-4.572l-.1-2.194v-.768a3.952,3.952,0,0,0-.11-.512,25.008,25.008,0,0,0-2.731-6.1,72.009,72.009,0,0,0-4.876-7.01c-1.841-2.341-3.816-4.669-5.864-6.961-1.024-1.146-2.085-2.268-3.133-3.4l-1.585-1.67-1.5-1.548-.244-.256a9.753,9.753,0,0,1,13.618-13.947Z" transform="translate(-226.284 -93.463)" fill="#263238"/>
        <path id="Path_4666" data-name="Path 4666" d="M318.375,152.454c1.219-.171,1.536-3.023.561-4.876-.792-1.524-3.657-1.317-6.218-.658a19.505,19.505,0,0,0-5.84,2.341c-2.585,1.426-1.646,3.145-1.048,4.5s1.731,4.462,4.169,2.816S316.668,152.71,318.375,152.454Z" transform="translate(-228.295 -94.339)" fill="#263238"/>
        <path id="Path_4667" data-name="Path 4667" d="M343.158,403.963c-.183-3.889.841-10.167-8.729-6.1-5.718,2.438,2.316,8.875,2.316,8.875Z" transform="translate(-222.332 -39.531)" fill="#263238"/>
        <path id="Path_4668" data-name="Path 4668" d="M243.073,154h13.093a1.792,1.792,0,0,1,1.634,1.219l6.851,24.382a.939.939,0,0,1-.914,1.219H250.631a1.817,1.817,0,0,1-1.621-1.219l-6.851-24.382a.927.927,0,0,1,.914-1.219Z" transform="translate(-242.111 -92.679)" fill="#ffd91a"/>
        <path id="Path_4669" data-name="Path 4669" d="M250.1,169.2l-2.743-9.546-4.779,1.9,1.731,11.289Z" transform="translate(-242.008 -91.441)" fill="#f8bfaf"/>
        <path id="Path_4670" data-name="Path 4670" d="M254.555,154.72h0a.622.622,0,0,1,.561.451l6.864,24.273a.317.317,0,0,1-.317.439h0a.609.609,0,0,1-.561-.439l-6.839-24.309a.329.329,0,0,1,.293-.415Z" transform="translate(-239.451 -92.521)" opacity="0.3"/>
      </g>
      <rect id="Rectangle_917" data-name="Rectangle 917" width="163.033" height="42.791" rx="7.83" transform="translate(1083.816 195.844)" fill="#ffd91a"/>
      <path id="Path_4672" data-name="Path 4672" d="M141.571,92.06l2.1,4.243,4.694.683-3.4,3.3.8,4.681-4.194-2.207-4.194,2.207.8-4.681-3.4-3.3,4.694-.683Z" transform="translate(1004.287 118.73)" fill="#fff"/>
      <path id="Path_4673" data-name="Path 4673" d="M157.19,92.06l2.1,4.243,4.694.683-3.4,3.3.8,4.681-4.194-2.207L153,104.97l.8-4.681-3.4-3.3,4.694-.683Z" transform="translate(1007.71 118.73)" fill="#fff"/>
      <path id="Path_4674" data-name="Path 4674" d="M172.81,92.06l2.1,4.243,4.694.683-3.389,3.3L177,104.97l-4.194-2.207-4.194,2.207.8-4.681-3.4-3.3,4.694-.683Z" transform="translate(1011.133 118.73)" fill="#fff"/>
      <path id="Path_4675" data-name="Path 4675" d="M188.431,92.06l2.1,4.243,4.694.683-3.389,3.3.792,4.681-4.194-2.207-4.194,2.207.8-4.681-3.4-3.3,4.694-.683Z" transform="translate(1014.555 118.73)" fill="#fff"/>
      <path id="Path_4676" data-name="Path 4676" d="M204.053,94.813l1,2.036a1.219,1.219,0,0,0,.927.658l2.243.329L206.6,99.421a1.219,1.219,0,0,0-.354,1.073l.378,2.243-2-1a1.365,1.365,0,0,0-.573-.134,1.219,1.219,0,0,0-.561.134L201.48,102.8l.341-2.28a1.219,1.219,0,0,0-.354-1.073l-1.621-1.585,2.243-.329a1.219,1.219,0,0,0,.951-.671l1-2.036m0-2.755-2.1,4.243L197.25,97l3.4,3.316-.8,4.669,4.194-2.207,4.194,2.207-.8-4.669,3.4-3.316-4.694-.683-2.1-4.243Z" transform="translate(1017.976 118.732)" fill="#fff" opacity="0.3"/>
      <circle id="Ellipse_38" data-name="Ellipse 38" cx="14.642" cy="14.642" r="14.642" transform="translate(1098.909 202.597)" fill="#fff" opacity="0.2"/>
      <path id="Path_4677" data-name="Path 4677" d="M128.115,99.455a12.081,12.081,0,0,1-22.712,5.754,11.9,11.9,0,0,1-1.463-5.754,12.094,12.094,0,0,1,24.175,0Z" transform="translate(997.529 117.785)" fill="#fff"/>
      <path id="Path_4678" data-name="Path 4678" d="M126.389,102.649a12.069,12.069,0,0,1-21.249,0A19.14,19.14,0,0,1,126.389,102.649Z" transform="translate(997.792 120.345)" fill="#263238"/>
      <path id="Path_4679" data-name="Path 4679" d="M120.207,94.969a5.389,5.389,0,1,1-5.389-5.389,5.389,5.389,0,0,1,5.389,5.389Z" transform="translate(998.732 118.186)" fill="#ffc3bd"/>
      <rect id="Rectangle_919" data-name="Rectangle 919" width="163.033" height="42.791" rx="7.83" transform="translate(1083.816 298.713)" fill="#ffd91a"/>
      <path id="Path_4680" data-name="Path 4680" d="M141.571,176.43l2.1,4.255,4.694.67-3.4,3.316.8,4.669-4.194-2.207-4.194,2.207.8-4.669-3.4-3.316,4.694-.67Z" transform="translate(1004.287 137.218)" fill="#fff"/>
      <path id="Path_4681" data-name="Path 4681" d="M157.19,176.43l2.1,4.255,4.694.67-3.4,3.316.8,4.669-4.194-2.207L153,189.341l.8-4.669-3.4-3.316,4.694-.67Z" transform="translate(1007.71 137.218)" fill="#fff"/>
      <path id="Path_4682" data-name="Path 4682" d="M172.81,176.43l2.1,4.255,4.694.67-3.389,3.316.792,4.669-4.194-2.207-4.194,2.207.8-4.669-3.4-3.316,4.694-.67Z" transform="translate(1011.133 137.218)" fill="#fff"/>
      <path id="Path_4683" data-name="Path 4683" d="M188.431,176.43l2.1,4.255,4.694.67-3.389,3.316.792,4.669-4.194-2.207-4.194,2.207.8-4.669-3.4-3.316,4.694-.67Z" transform="translate(1014.555 137.218)" fill="#fff"/>
      <path id="Path_4684" data-name="Path 4684" d="M204.051,176.43l2.1,4.255,4.694.67-3.389,3.316.792,4.669-4.194-2.207-4.194,2.207.8-4.669-3.4-3.316,4.694-.67Z" transform="translate(1017.978 137.218)" fill="#fff"/>
      <circle id="Ellipse_39" data-name="Ellipse 39" cx="14.642" cy="14.642" r="14.642" transform="translate(1092.854 320.107) rotate(-45)" fill="#fff" opacity="0.2"/>
      <path id="Path_4685" data-name="Path 4685" d="M128.115,183.825a12.082,12.082,0,0,1-22.712,5.766,11.947,11.947,0,0,1-1.463-5.766,12.094,12.094,0,0,1,24.175,0Z" transform="translate(997.529 136.272)" fill="#fff"/>
      <path id="Path_4686" data-name="Path 4686" d="M126.389,187.029a12.081,12.081,0,0,1-21.249,0A19.14,19.14,0,0,1,126.389,187.029Z" transform="translate(997.792 138.834)" fill="#ffd91a" opacity="0.5"/>
      <path id="Path_4687" data-name="Path 4687" d="M120.207,179.3a5.389,5.389,0,1,1-5.389-5.376,5.389,5.389,0,0,1,5.389,5.376Z" transform="translate(998.732 136.667)" fill="#ffb573"/>
      <rect id="Rectangle_920" data-name="Rectangle 920" width="163.033" height="42.791" rx="7.83" transform="translate(1083.816 247.278)" fill="#ffd91a"/>
      <path id="Path_4688" data-name="Path 4688" d="M221.4,142.54,211.16,160.278h25.6Z" transform="translate(1021.024 129.791)" fill="#ffd91a"/>
      <path id="Path_4689" data-name="Path 4689" d="M141.571,134.24l2.1,4.255,4.694.683-3.4,3.3.8,4.669-4.194-2.207-4.194,2.207.8-4.669-3.4-3.3,4.694-.683Z" transform="translate(1004.287 127.973)" fill="#fff"/>
      <path id="Path_4690" data-name="Path 4690" d="M157.19,134.24l2.1,4.255,4.694.683-3.4,3.3.8,4.669-4.194-2.207L153,147.15l.8-4.669-3.4-3.3,4.694-.683Z" transform="translate(1007.71 127.973)" fill="#fff"/>
      <path id="Path_4691" data-name="Path 4691" d="M172.813,136.993l1,2.036a1.219,1.219,0,0,0,.927.671l2.231.341-1.621,1.585a1.219,1.219,0,0,0-.354,1.073l.378,2.243-2-1.061a1.219,1.219,0,0,0-.573-.146,1.134,1.134,0,0,0-.561.146l-2.012,1.061.378-2.243a1.219,1.219,0,0,0-.354-1.073l-1.621-1.585,2.243-.329a1.219,1.219,0,0,0,.927-.671l1-2.036m0-2.755-2.1,4.255-4.694.683,3.4,3.3-.8,4.669,4.194-2.207,4.194,2.207-.8-4.669,3.4-3.3L174.9,138.5l-2.1-4.255Z" transform="translate(1011.13 127.975)" fill="#fff" opacity="0.3"/>
      <path id="Path_4692" data-name="Path 4692" d="M188.431,137l1,2.036a1.219,1.219,0,0,0,.926.671l2.243.329-1.621,1.585a1.219,1.219,0,0,0-.354,1.073l.378,2.243-2-1.061a1.219,1.219,0,0,0-.573-.146,1.134,1.134,0,0,0-.561.146l-2.012,1.061.378-2.243a1.219,1.219,0,0,0-.354-1.073l-1.621-1.585,2.243-.329a1.219,1.219,0,0,0,.927-.671l1-2.036m0-2.755-2.1,4.255-4.694.683,3.4,3.3-.8,4.669,4.194-2.207,4.194,2.207-.792-4.669,3.4-3.3-4.694-.683-2.1-4.255Z" transform="translate(1014.555 127.973)" fill="#fff" opacity="0.3"/>
      <path id="Path_4693" data-name="Path 4693" d="M204.051,137l1,2.036a1.219,1.219,0,0,0,.927.671l2.243.329-1.621,1.585a1.219,1.219,0,0,0-.354,1.073l.378,2.243-2-1.061a1.219,1.219,0,0,0-.573-.146,1.134,1.134,0,0,0-.561.146l-2.012,1.061.378-2.243a1.219,1.219,0,0,0-.354-1.073l-1.621-1.585,2.243-.329a1.219,1.219,0,0,0,.927-.671l1-2.036m0-2.755-2.1,4.255-4.694.683,3.4,3.3-.8,4.669,4.194-2.207,4.194,2.207-.8-4.669,3.4-3.3-4.694-.683-2.1-4.255Z" transform="translate(1017.978 127.973)" fill="#fff" opacity="0.3"/>
      <circle id="Ellipse_40" data-name="Ellipse 40" cx="14.642" cy="14.642" r="14.642" transform="translate(1098.909 254.033)" fill="#fff" opacity="0.2"/>
      <path id="Path_4694" data-name="Path 4694" d="M128.116,141.783a12.081,12.081,0,0,1-22.712,5.754,11.9,11.9,0,0,1-1.463-5.754,12.094,12.094,0,1,1,24.175,0Z" transform="translate(997.528 126.891)" fill="#fff"/>
      <path id="Path_4695" data-name="Path 4695" d="M126.389,144.839a12.082,12.082,0,0,1-21.249,0,19.14,19.14,0,0,1,21.249,0Z" transform="translate(997.792 129.589)" fill="#ffd91a"/>
      <path id="Path_4696" data-name="Path 4696" d="M120.207,137.118a5.376,5.376,0,1,1-1.575-3.814,5.389,5.389,0,0,1,1.575,3.814Z" transform="translate(998.732 127.422)" fill="#b55b52"/>
    </g>
  </g>
</svg>
