<svg xmlns="http://www.w3.org/2000/svg" width="1470.683" height="1411.338" viewBox="0 0 1470.683 1411.338">
  <path id="Path_4706" data-name="Path 4706" d="M622.468,40.465c45.11-21.719,129.41-20.719,174.52,1l445.019,214.267a164.545,164.545,0,0,1,89.036,111.634l109.9,481.4a164.545,164.545,0,0,1-31.781,139.227l-307.944,386.072A164.545,164.545,0,0,1,972.579,1436H478.632A164.545,164.545,0,0,1,350,1374.064L10.3,986.992A164.545,164.545,0,0,1-21.485,847.765l141.654-480.4a164.545,164.545,0,0,1,89.036-111.634Z" transform="translate(25.614 -24.667)" fill="#7300e5"/>
</svg>
